<svg width="156" height="38" viewBox="0 0 156 38" fill="none" xmlns="http://www.w3.org/2000/svg">
<g clip-path="url(#clip0_307_11)">
<path d="M53.832 27H51.24L43.488 18.312V27H41.328V9.864H43.488V18.168L51.048 9.864H53.496L46.056 18.192L53.832 27ZM67.0599 20.544C67.0599 21.616 66.9159 22.568 66.6279 23.4C66.3559 24.216 65.9559 24.912 65.4279 25.488C64.9159 26.064 64.2839 26.504 63.5319 26.808C62.7959 27.096 61.9719 27.24 61.0599 27.24C60.2119 27.24 59.4279 27.096 58.7079 26.808C57.9879 26.504 57.3639 26.064 56.8359 25.488C56.3079 24.912 55.8919 24.216 55.5879 23.4C55.2999 22.568 55.1559 21.616 55.1559 20.544C55.1559 19.12 55.3959 17.92 55.8759 16.944C56.3559 15.952 57.0439 15.2 57.9399 14.688C58.8359 14.16 59.8999 13.896 61.1319 13.896C62.2999 13.896 63.3239 14.16 64.2039 14.688C65.0999 15.2 65.7959 15.952 66.2919 16.944C66.8039 17.92 67.0599 19.12 67.0599 20.544ZM57.3399 20.544C57.3399 21.552 57.4679 22.432 57.7239 23.184C57.9959 23.92 58.4119 24.488 58.9719 24.888C59.5319 25.288 60.2439 25.488 61.1079 25.488C61.9719 25.488 62.6839 25.288 63.2439 24.888C63.8039 24.488 64.2119 23.92 64.4679 23.184C64.7399 22.432 64.8759 21.552 64.8759 20.544C64.8759 19.52 64.7399 18.648 64.4679 17.928C64.1959 17.208 63.7799 16.656 63.2199 16.272C62.6759 15.872 61.9639 15.672 61.0839 15.672C59.7719 15.672 58.8199 16.104 58.2279 16.968C57.6359 17.832 57.3399 19.024 57.3399 20.544ZM72.5192 14.136V19.488H79.5032V14.136H81.6152V27H79.5032V21.264H72.5192V27H70.4072V14.136H72.5192ZM93.3684 13.944C94.6484 14.056 95.7604 14.392 96.7044 14.952C97.6644 15.512 98.4084 16.264 98.9364 17.208C99.4644 18.152 99.7284 19.272 99.7284 20.568C99.7284 21.864 99.4724 22.992 98.9604 23.952C98.4484 24.896 97.7204 25.648 96.7764 26.208C95.8324 26.752 94.6964 27.08 93.3684 27.192V32.76H91.3044V27.192C90.0404 27.08 88.9284 26.752 87.9684 26.208C87.0084 25.648 86.2644 24.896 85.7364 23.952C85.2084 22.992 84.9444 21.864 84.9444 20.568C84.9444 19.256 85.2004 18.128 85.7124 17.184C86.2244 16.224 86.9604 15.472 87.9204 14.928C88.8804 14.368 90.0324 14.04 91.3764 13.944V8.76H93.3684V13.944ZM91.3764 15.696C90.4004 15.792 89.6004 16.04 88.9764 16.44C88.3524 16.84 87.8884 17.384 87.5844 18.072C87.2964 18.76 87.1524 19.592 87.1524 20.568C87.1524 21.528 87.2964 22.36 87.5844 23.064C87.8884 23.752 88.3524 24.304 88.9764 24.72C89.6004 25.12 90.4004 25.368 91.3764 25.464V15.696ZM93.3684 25.464C94.3284 25.352 95.1124 25.096 95.7204 24.696C96.3444 24.296 96.8004 23.752 97.0884 23.064C97.3924 22.36 97.5444 21.528 97.5444 20.568C97.5444 19.608 97.3924 18.784 97.0884 18.096C96.7844 17.408 96.3204 16.864 95.6964 16.464C95.0884 16.064 94.3124 15.816 93.3684 15.72V25.464ZM114.263 20.544C114.263 21.616 114.119 22.568 113.831 23.4C113.559 24.216 113.159 24.912 112.631 25.488C112.119 26.064 111.487 26.504 110.735 26.808C109.999 27.096 109.175 27.24 108.263 27.24C107.415 27.24 106.631 27.096 105.911 26.808C105.191 26.504 104.567 26.064 104.039 25.488C103.511 24.912 103.095 24.216 102.791 23.4C102.503 22.568 102.359 21.616 102.359 20.544C102.359 19.12 102.599 17.92 103.079 16.944C103.559 15.952 104.247 15.2 105.143 14.688C106.039 14.16 107.103 13.896 108.335 13.896C109.503 13.896 110.527 14.16 111.407 14.688C112.303 15.2 112.999 15.952 113.495 16.944C114.007 17.92 114.263 19.12 114.263 20.544ZM104.543 20.544C104.543 21.552 104.671 22.432 104.927 23.184C105.199 23.92 105.615 24.488 106.175 24.888C106.735 25.288 107.447 25.488 108.311 25.488C109.175 25.488 109.887 25.288 110.447 24.888C111.007 24.488 111.415 23.92 111.671 23.184C111.943 22.432 112.079 21.552 112.079 20.544C112.079 19.52 111.943 18.648 111.671 17.928C111.399 17.208 110.983 16.656 110.423 16.272C109.879 15.872 109.167 15.672 108.287 15.672C106.975 15.672 106.023 16.104 105.431 16.968C104.839 17.832 104.543 19.024 104.543 20.544ZM123.73 13.896C125.314 13.896 126.586 14.448 127.546 15.552C128.522 16.656 129.01 18.32 129.01 20.544C129.01 22 128.786 23.232 128.338 24.24C127.906 25.232 127.29 25.984 126.49 26.496C125.706 26.992 124.778 27.24 123.706 27.24C123.05 27.24 122.466 27.152 121.954 26.976C121.442 26.8 121.002 26.576 120.634 26.304C120.282 26.016 119.978 25.704 119.722 25.368H119.578C119.61 25.64 119.642 25.984 119.674 26.4C119.706 26.816 119.722 27.176 119.722 27.48V32.76H117.61V14.136H119.338L119.626 15.888H119.722C119.978 15.52 120.282 15.184 120.634 14.88C121.002 14.576 121.434 14.336 121.93 14.16C122.442 13.984 123.042 13.896 123.73 13.896ZM123.346 15.672C122.482 15.672 121.786 15.84 121.258 16.176C120.73 16.496 120.346 16.984 120.106 17.64C119.866 18.296 119.738 19.128 119.722 20.136V20.544C119.722 21.6 119.834 22.496 120.058 23.232C120.282 23.968 120.658 24.528 121.186 24.912C121.73 25.296 122.466 25.488 123.394 25.488C124.178 25.488 124.818 25.272 125.314 24.84C125.826 24.408 126.202 23.824 126.442 23.088C126.698 22.336 126.826 21.48 126.826 20.52C126.826 19.048 126.538 17.872 125.962 16.992C125.402 16.112 124.53 15.672 123.346 15.672ZM139.984 14.136H142.288L136.792 20.328L142.744 27H140.296L134.488 20.472V27H132.376V14.136H134.488V20.376L139.984 14.136ZM149.951 13.92C151.519 13.92 152.679 14.264 153.431 14.952C154.183 15.64 154.559 16.736 154.559 18.24V27H153.023L152.615 25.176H152.519C152.151 25.64 151.767 26.032 151.367 26.352C150.983 26.656 150.535 26.88 150.023 27.024C149.527 27.168 148.919 27.24 148.199 27.24C147.431 27.24 146.735 27.104 146.111 26.832C145.503 26.56 145.023 26.144 144.671 25.584C144.319 25.008 144.143 24.288 144.143 23.424C144.143 22.144 144.647 21.16 145.655 20.472C146.663 19.768 148.215 19.384 150.311 19.32L152.495 19.248V18.48C152.495 17.408 152.263 16.664 151.799 16.248C151.335 15.832 150.679 15.624 149.831 15.624C149.159 15.624 148.519 15.728 147.911 15.936C147.303 16.128 146.735 16.352 146.207 16.608L145.559 15.024C146.119 14.72 146.783 14.464 147.551 14.256C148.319 14.032 149.119 13.92 149.951 13.92ZM150.575 20.784C148.975 20.848 147.863 21.104 147.239 21.552C146.631 22 146.327 22.632 146.327 23.448C146.327 24.168 146.543 24.696 146.975 25.032C147.423 25.368 147.991 25.536 148.679 25.536C149.767 25.536 150.671 25.24 151.391 24.648C152.111 24.04 152.471 23.112 152.471 21.864V20.712L150.575 20.784Z" fill="black"/>
<path d="M3 29.1807V8.81928C3 6.15766 5.15766 4 7.81928 4V6.40964C6.48847 6.40964 5.40964 7.48847 5.40964 8.81928V29.1807L5.41046 29.243C5.44295 30.5243 6.47568 31.5571 7.75704 31.5895L7.81928 31.5904H28.1807L28.243 31.5895C29.545 31.5565 30.5904 30.4907 30.5904 29.1807V8.81928C30.5904 7.48847 29.5115 6.40964 28.1807 6.40964V4C30.8423 4 33 6.15766 33 8.81928V29.1807C33 31.8423 30.8423 34 28.1807 34H7.81928C5.15766 34 3 31.8423 3 29.1807ZM28.1807 4V6.40964H7.81928V4H28.1807Z" fill="#2D2A23"/>
<path d="M17 12C17 12.5523 17.4477 13 18 13C18.5523 13 19 12.5523 19 12V6H17V12Z" fill="#24232D"/>
<path d="M17 26C17 25.4477 17.4477 25 18 25C18.5523 25 19 25.4477 19 26V32H17V26Z" fill="#24232D"/>
<path d="M11 20C11.5523 20 12 19.5523 12 19C12 18.4477 11.5523 18 11 18H5V20H11Z" fill="#24232D"/>
<path d="M25 20C24.4477 20 24 19.5523 24 19C24 18.4477 24.4477 18 25 18H31V20H25Z" fill="#24232D"/>
<path d="M21.7486 19C21.7486 16.9297 20.0703 15.2514 18 15.2514C15.9297 15.2514 14.2514 16.9297 14.2514 19C14.2514 21.0703 15.9297 22.7486 18 22.7486C20.0703 22.7486 21.7486 21.0703 21.7486 19ZM29 19C29 25.0751 24.0751 30 18 30C11.9249 30 7 25.0751 7 19C7 12.9249 11.9249 8 18 8C24.0751 8 29 12.9249 29 19Z" fill="url(#paint0_radial_307_11)"/>
</g>
<defs>
<radialGradient id="paint0_radial_307_11" cx="0" cy="0" r="1" gradientUnits="userSpaceOnUse" gradientTransform="translate(18 19) rotate(89.8768) scale(23.7458)">
<stop stop-color="#6C37AF"/>
<stop offset="1" stop-color="#0062F5" stop-opacity="0"/>
</radialGradient>
<clipPath id="clip0_307_11">
<rect width="156" height="38" fill="white"/>
</clipPath>
</defs>
</svg>
